<svg width="77" height="40" viewBox="0 0 77 40" fill="none" xmlns="http://www.w3.org/2000/svg"><path d="M36.4297 4.94969C35.321 2.12822 32.2556 0 29.3004 0H19.1911C15.7098 0 13.8006 2.9173 15.1066 6.24103L26.4272 35.0503C27.5359 37.8718 30.6013 40 33.5565 40H43.6658C47.1471 40 49.0564 37.0827 47.7503 33.759L36.4297 4.94969Z" fill="#F2CB05"></path><path d="M11.8977 4.94969C13.0219 2.12822 16.1302 0 19.1268 0H28.5238C32.6234 0 35.8734 2.01596 37.109 5.32544L38.3673 8.69565C38.0509 6.28702 34.2207 6.69084 33.1345 9.24736L21.8051 35.9118C20.8088 38.2566 18.2106 40 15.7123 40H4.56032C1.03028 40 -0.905707 37.0827 0.418634 33.759L11.8977 4.94969Z" fill="#5524BF"></path><path fill-rule="evenodd" clip-rule="evenodd" d="M37.5505 7.54868C36.3585 6.55745 33.8043 7.23448 32.9513 9.25471L24.4353 29.4251L15.4208 6.246C14.1272 2.91962 16.0183 0 19.4665 0H28.3661C30.4056 0 32.2336 0.50486 33.7051 1.42408C34.9634 2.3091 35.9935 3.54504 36.5413 4.95363L37.5505 7.54868Z" fill="#F26052"></path><path d="M40.3196 4.94969C41.4283 2.12822 44.4937 0 47.4489 0H57.5582C61.0395 0 62.9487 2.9173 61.6427 6.24103L50.3221 35.0503C49.2134 37.8718 46.148 40 43.1928 40H33.0835C29.6022 40 27.693 37.0827 28.999 33.759L40.3196 4.94969Z" fill="#F2CB05"></path><path d="M64.8517 4.94969C63.7275 2.12822 60.6192 0 57.6226 0H48.2256C44.1259 0 40.876 2.01596 39.6404 5.32544L38.382 8.69565C38.6985 6.28702 42.5287 6.69084 43.6149 9.24736L54.9443 35.9118C55.9406 38.2566 58.5388 40 61.0371 40H72.1891C75.7191 40 77.6551 37.0827 76.3308 33.759L64.8517 4.94969Z" fill="#5524BF"></path><path fill-rule="evenodd" clip-rule="evenodd" d="M39.1988 7.54874C40.3907 6.55742 42.9451 7.23443 43.798 9.25471L52.314 29.425L61.3285 6.24599C62.6221 2.91962 60.731 0 57.2828 0H48.3832C46.3436 0 44.5154 0.504965 43.0438 1.42436C41.7857 2.30937 40.7558 3.54519 40.208 4.95362L39.1988 7.54874Z" fill="#F26052"></path></svg>